<mxfile host="app.diagrams.net" agent="Mozilla/5.0 (Windows NT 10.0; Win64; x64) AppleWebKit/537.36 (KHTML, like Gecko) Chrome/138.0.0.0 Safari/537.36" version="28.0.7">
  <diagram name="Page-1" id="7d2cEUKClss4xclY4PYo">
    <mxGraphModel dx="947" dy="553" grid="1" gridSize="10" guides="1" tooltips="1" connect="1" arrows="1" fold="1" page="1" pageScale="1" pageWidth="850" pageHeight="1100" math="0" shadow="0">
      <root>
        <mxCell id="0" />
        <mxCell id="1" parent="0" />
        <mxCell id="HHRj7kBL4Wng4IgHYMXJ-1" value="plan" style="ellipse;whiteSpace=wrap;html=1;" vertex="1" parent="1">
          <mxGeometry x="340" y="10" width="120" height="80" as="geometry" />
        </mxCell>
        <mxCell id="HHRj7kBL4Wng4IgHYMXJ-3" value="" style="endArrow=classic;html=1;rounded=0;" edge="1" parent="1">
          <mxGeometry width="50" height="50" relative="1" as="geometry">
            <mxPoint x="400" y="100" as="sourcePoint" />
            <mxPoint x="399.5" y="180" as="targetPoint" />
            <Array as="points" />
          </mxGeometry>
        </mxCell>
        <mxCell id="HHRj7kBL4Wng4IgHYMXJ-5" value="develop" style="ellipse;whiteSpace=wrap;html=1;" vertex="1" parent="1">
          <mxGeometry x="340" y="180" width="120" height="80" as="geometry" />
        </mxCell>
        <mxCell id="HHRj7kBL4Wng4IgHYMXJ-6" value="" style="endArrow=classic;html=1;rounded=0;" edge="1" parent="1">
          <mxGeometry width="50" height="50" relative="1" as="geometry">
            <mxPoint x="399.5" y="270" as="sourcePoint" />
            <mxPoint x="399.5" y="340" as="targetPoint" />
            <Array as="points">
              <mxPoint x="399.5" y="310" />
            </Array>
          </mxGeometry>
        </mxCell>
        <mxCell id="HHRj7kBL4Wng4IgHYMXJ-7" value="build" style="ellipse;whiteSpace=wrap;html=1;" vertex="1" parent="1">
          <mxGeometry x="340" y="340" width="120" height="80" as="geometry" />
        </mxCell>
        <mxCell id="HHRj7kBL4Wng4IgHYMXJ-8" value="" style="endArrow=classic;html=1;rounded=0;" edge="1" parent="1">
          <mxGeometry width="50" height="50" relative="1" as="geometry">
            <mxPoint x="399.5" y="440" as="sourcePoint" />
            <mxPoint x="399.5" y="520" as="targetPoint" />
            <Array as="points">
              <mxPoint x="399.5" y="430" />
            </Array>
          </mxGeometry>
        </mxCell>
        <mxCell id="HHRj7kBL4Wng4IgHYMXJ-9" value="test" style="ellipse;whiteSpace=wrap;html=1;" vertex="1" parent="1">
          <mxGeometry x="340" y="530" width="120" height="80" as="geometry" />
        </mxCell>
        <mxCell id="HHRj7kBL4Wng4IgHYMXJ-10" value="" style="endArrow=classic;html=1;rounded=0;" edge="1" parent="1">
          <mxGeometry width="50" height="50" relative="1" as="geometry">
            <mxPoint x="399.5" y="620" as="sourcePoint" />
            <mxPoint x="399.5" y="700" as="targetPoint" />
            <Array as="points">
              <mxPoint x="399.5" y="660" />
            </Array>
          </mxGeometry>
        </mxCell>
        <mxCell id="HHRj7kBL4Wng4IgHYMXJ-11" value="release" style="ellipse;whiteSpace=wrap;html=1;" vertex="1" parent="1">
          <mxGeometry x="340" y="710" width="120" height="80" as="geometry" />
        </mxCell>
        <mxCell id="HHRj7kBL4Wng4IgHYMXJ-12" value="" style="endArrow=classic;html=1;rounded=0;" edge="1" parent="1">
          <mxGeometry width="50" height="50" relative="1" as="geometry">
            <mxPoint x="399.5" y="810" as="sourcePoint" />
            <mxPoint x="399.5" y="880" as="targetPoint" />
            <Array as="points">
              <mxPoint x="399.5" y="850" />
            </Array>
          </mxGeometry>
        </mxCell>
        <mxCell id="HHRj7kBL4Wng4IgHYMXJ-13" value="deploy" style="ellipse;whiteSpace=wrap;html=1;" vertex="1" parent="1">
          <mxGeometry x="340" y="890" width="120" height="80" as="geometry" />
        </mxCell>
        <mxCell id="HHRj7kBL4Wng4IgHYMXJ-14" value="" style="endArrow=classic;html=1;rounded=0;" edge="1" parent="1" target="HHRj7kBL4Wng4IgHYMXJ-15">
          <mxGeometry width="50" height="50" relative="1" as="geometry">
            <mxPoint x="399.5" y="980" as="sourcePoint" />
            <mxPoint x="399.5" y="1040" as="targetPoint" />
            <Array as="points" />
          </mxGeometry>
        </mxCell>
        <mxCell id="HHRj7kBL4Wng4IgHYMXJ-15" value="operate" style="ellipse;whiteSpace=wrap;html=1;" vertex="1" parent="1">
          <mxGeometry x="340" y="1050" width="120" height="80" as="geometry" />
        </mxCell>
        <mxCell id="HHRj7kBL4Wng4IgHYMXJ-16" value="" style="ellipse;whiteSpace=wrap;html=1;" vertex="1" parent="1">
          <mxGeometry x="340" y="1200" width="120" height="80" as="geometry" />
        </mxCell>
        <mxCell id="HHRj7kBL4Wng4IgHYMXJ-18" value="" style="endArrow=classic;html=1;rounded=0;" edge="1" parent="1">
          <mxGeometry width="50" height="50" relative="1" as="geometry">
            <mxPoint x="400" y="1140" as="sourcePoint" />
            <mxPoint x="400" y="1190" as="targetPoint" />
          </mxGeometry>
        </mxCell>
      </root>
    </mxGraphModel>
  </diagram>
</mxfile>
